<?xml version="1.0" encoding="utf-8"?>
<!-- Generator: Adobe Illustrator 15.1.0, SVG Export Plug-In . SVG Version: 6.00 Build 0)  -->
<!DOCTYPE svg PUBLIC "-//W3C//DTD SVG 1.1//EN" "http://www.w3.org/Graphics/SVG/1.1/DTD/svg11.dtd">
<svg version="1.1" id="Layer_1" xmlns="http://www.w3.org/2000/svg" xmlns:xlink="http://www.w3.org/1999/xlink" x="0px" y="0px"
	 width="638.968px" height="595.28px" viewBox="0 0 638.968 595.28" enable-background="new 0 0 638.968 595.28"
	 xml:space="preserve">
<path opacity="0.8" fill="#86D0F4" stroke="#020202" stroke-width="3" stroke-miterlimit="10" d="M442.774,144.982
	c-3.477-44.598-16.646-53.128-16.646-53.128c-2.483-5.586-44.694-38.797-44.694-38.797c-18.622-11.173,7.14-29.795,7.14-29.795
	c-131.525,13.31-168.269,65.647-178.528,93.245c-3.855,10.37-3.972,17.247-3.972,17.247c-1.949,10.394-1.15,35.571,0.054,57.217
	c1.097,19.724,2.532,36.516,2.532,36.516c-5.794-0.62-8.69,3.518-8.69,3.518c-5.173,6.621-0.414,11.588,2.69,40.97
	s10.966,23.019,10.966,23.019c-0.207,4.397,3.621,16.296,3.621,16.296L442.774,144.982z"/>
<path opacity="0.8" fill="#86D0F4" stroke="#020202" stroke-width="3" stroke-miterlimit="10" d="M241.456,371.19
	c0.62,15.52-5.277,53.694-5.277,53.694c-2.483,0-10.552,3.725-10.552,3.725c-0.815,6.522-1.81,12.063-2.864,16.74
	c-3.765,16.687-8.31,22.366-8.31,22.366s-12.014,8.152-63.147,29.448c-10.372,4.32-22.354,9.182-36.172,14.625
	c-9.49,3.738-18.005,7.227-25.645,10.474c-58.325,24.785-65.604,35.462-65.604,35.462v37.556h88.007h277.333h235.231v-35.072
	c0-12.416-96.216-49.66-96.216-49.66c-5.25-1.235-17.5-6.328-31.529-12.585c-28.267-12.606-63.755-29.936-63.755-29.936
	c-3.725-1.862-10.242-39.418-10.242-39.418l-10.553-4.034c-7.14-33.521-6.518-61.766,1.552-66.421
	c2.825-1.63,6.259-9.86,9.528-19.87c6.07-18.58,11.577-43.291,11.577-43.291c10.553,4.501,8.07-24.053,14.277-45.779
	c6.208-21.727-9.312-22.037-9.312-22.037c2.56-6.437,2.841-48.897,2.841-48.897L224.479,337.847c0,0,5.055,22.16,14.9,26.297
	L241.456,371.19z"/>
</svg>
