<?xml version="1.0" encoding="utf-8"?>
<!-- Generator: Adobe Illustrator 16.0.0, SVG Export Plug-In . SVG Version: 6.00 Build 0)  -->
<!DOCTYPE svg PUBLIC "-//W3C//DTD SVG 1.1//EN" "http://www.w3.org/Graphics/SVG/1.1/DTD/svg11.dtd">
<svg version="1.1" id="Layer_1" xmlns="http://www.w3.org/2000/svg" xmlns:xlink="http://www.w3.org/1999/xlink" x="0px" y="0px"
	 width="100px" height="100px" viewBox="0 0 100 100" enable-background="new 0 0 100 100" xml:space="preserve">
<rect fill="none" width="50" height="50"/>
<rect fill="none" width="50" height="50"/>
<circle fill="#676767" cx="0" cy="0" r="1.5"/>
<circle fill="#676767" cx="50" cy="0" r="1.5"/>
<circle fill="#676767" cx="0" cy="50" r="1.5"/>
<circle fill="#676767" cx="50" cy="50" r="1.5"/>
<rect x="50" fill="none" width="50" height="50"/>
<rect x="50" fill="none" width="50" height="50"/>
<circle fill="#676767" cx="50" cy="0" r="1.5"/>
<circle fill="#676767" cx="100" cy="0" r="1.5"/>
<circle fill="#676767" cx="50" cy="50" r="1.5"/>
<circle fill="#676767" cx="100" cy="50" r="1.5"/>
<rect y="50" fill="none" width="50" height="50"/>
<rect y="50" fill="none" width="50" height="50"/>
<circle fill="#676767" cx="0" cy="50" r="1.5"/>
<circle fill="#676767" cx="50" cy="50" r="1.5"/>
<circle fill="#676767" cx="0" cy="100" r="1.5"/>
<circle fill="#676767" cx="50" cy="100" r="1.5"/>
<rect x="50" y="50" fill="none" width="50" height="50"/>
<rect x="50" y="50" fill="none" width="50" height="50"/>
<circle fill="#676767" cx="50" cy="50" r="1.5"/>
<circle fill="#676767" cx="100" cy="50" r="1.5"/>
<circle fill="#676767" cx="50" cy="100" r="1.5"/>
<circle fill="#676767" cx="100" cy="100" r="1.5"/>
</svg>
