<?xml version="1.0" encoding="utf-8"?>
<!-- Generator: Adobe Illustrator 16.0.0, SVG Export Plug-In . SVG Version: 6.00 Build 0)  -->
<!DOCTYPE svg PUBLIC "-//W3C//DTD SVG 1.1//EN" "http://www.w3.org/Graphics/SVG/1.1/DTD/svg11.dtd">
<svg version="1.1" id="Layer_1" xmlns="http://www.w3.org/2000/svg" xmlns:xlink="http://www.w3.org/1999/xlink" x="0px" y="0px"
	 width="539.973px" height="514.58px" viewBox="0 0 539.973 514.58" enable-background="new 0 0 539.973 514.58"
	 xml:space="preserve">
<path fill="#676767" d="M514.64,200.875c3.08-0.697,2.773-1.779,2.773-1.779c0.156-3.256-3.065-2.431-3.065-2.431
	s-1.563,2.561,1.693-6.381c3.255-8.942-0.305-12.632-0.305-12.632c1.303-0.956,0-2.518,0-2.518c0.999-1.824-0.304-2.648-0.304-2.648
	c2.171-4.992,0.999-4.948,0.999-4.948c-0.955-1.042-4.949,1.389-4.949,1.389c-0.679-1.358-2.012-0.358-2.35-0.071
	c-0.025-0.034-0.05-0.065-0.081-0.104c-0.781-1.001-2.214-0.432-2.214-0.432c-2.431-1.823-9.116-1.303-13.891,0.432
	c-4.775,1.734-5.644,1.738-5.644,1.738c1.042-3.733-1.736-3.473-1.736-3.473c-3.299,0.087-2.604,2.604-2.604,2.604l-16.106,0.839
	l-16.105-0.839c0,0,0.694-2.518-2.604-2.604c0,0-2.779-0.26-1.736,3.473c0,0-0.869-0.004-5.645-1.738
	c-4.774-1.735-11.459-2.255-13.891-0.432c0,0-1.432-0.569-2.213,0.432c-0.031,0.039-0.055,0.07-0.081,0.104
	c-0.339-0.287-1.671-1.287-2.351,0.071c0,0-3.993-2.431-4.948-1.389c0,0-1.172-0.044,0.998,4.948c0,0-1.302,0.825-0.304,2.648
	c0,0-1.303,1.562,0,2.518c0,0-3.56,3.69-0.305,12.632c3.257,8.942,1.693,6.381,1.693,6.381s-3.222-0.825-3.064,2.431
	c0,0-0.308,1.082,2.772,1.779c0.067,0.015,0.136,0.03,0.205,0.044c0,0,0.044,11.27-1.663,18.534
	c-1.707,7.263-0.839,11.317,1.591,12.621c0,0-1.128,1.511-0.173,2.206c0,0-1.853,1.308,0.086,2.842c0,0-1.187,1.1,0.146,2.315
	c0,0-4.022,2.201-1.853,11.838c0,0,2.489,9.61,2.547,12.418c0.058,2.806,0.376,6.511,0.376,6.511s-3.502,1.047-2.807,3.824
	c0,0,0.55,1.534,2.864,0.897c0,0,0.175,1.565-2.17,9.437c-2.344,7.871,1.273,8.914,1.273,8.914s-1.39,0.868,0.116,2.402
	c0,0-1.447,1.795,0.289,2.722c0,0,0.145,0.636-0.724,2.257s-0.029,0.145-0.029,0.145s-0.897,1.62-0.086,2.083
	c0,0,2.864,0.724,4.919-1.331l0.579-0.087c0,0,1.07,1.099,1.847,0.256c0.032-0.034,0.062-0.07,0.092-0.109
	c0,0,0.956,0.925,1.968,0.404c0,0,1.418,1.272,5.065,1.272c0,0,3.877,0.464,13.254-3.299c0,0,1.563-1.014,1.389,1.302
	c0,0,1.36,1.563,2.692,1.447c0,0,1.07,0.289,1.765-1.88c0,0,0.586-0.689,1.185-0.773c0.039-0.005,0.078-0.01,0.117-0.01
	c0.498,0,9.166-0.28,12.923-0.403c3.758,0.123,12.426,0.403,12.923,0.403c0.039,0,0.078,0.005,0.117,0.01
	c0.599,0.084,1.186,0.773,1.186,0.773c0.693,2.169,1.765,1.88,1.765,1.88c1.331,0.116,2.691-1.447,2.691-1.447
	c-0.174-2.315,1.389-1.302,1.389-1.302c9.377,3.763,13.255,3.299,13.255,3.299c3.646,0,5.064-1.272,5.064-1.272
	c1.014,0.521,1.968-0.404,1.968-0.404c0.03,0.039,0.062,0.075,0.092,0.109c0.777,0.843,1.847-0.256,1.847-0.256l0.58,0.087
	c2.055,2.055,4.919,1.331,4.919,1.331c0.811-0.463-0.087-2.083-0.087-2.083s0.84,1.477-0.028-0.145s-0.725-2.257-0.725-2.257
	c1.736-0.927,0.29-2.722,0.29-2.722c1.505-1.534,0.115-2.402,0.115-2.402s3.617-1.043,1.273-8.914s-2.17-9.437-2.17-9.437
	c2.314,0.637,2.865-0.897,2.865-0.897c0.694-2.777-2.808-3.824-2.808-3.824s0.318-3.705,0.377-6.511
	c0.057-2.808,2.546-12.418,2.546-12.418c2.171-9.638-1.853-11.838-1.853-11.838c1.332-1.215,0.146-2.315,0.146-2.315
	c1.938-1.534,0.087-2.842,0.087-2.842c0.954-0.695-0.174-2.206-0.174-2.206c2.431-1.303,3.3-5.357,1.591-12.621
	c-1.706-7.264-1.663-18.534-1.663-18.534C514.504,200.905,514.572,200.89,514.64,200.875z M494.739,281.791h-57.207v-90.639h57.207
	V281.791z"/>
</svg>
