<?xml version="1.0" encoding="utf-8"?>
<!-- Generator: Adobe Illustrator 16.0.0, SVG Export Plug-In . SVG Version: 6.00 Build 0)  -->
<!DOCTYPE svg PUBLIC "-//W3C//DTD SVG 1.1//EN" "http://www.w3.org/Graphics/SVG/1.1/DTD/svg11.dtd">
<svg version="1.1" id="Layer_1" xmlns="http://www.w3.org/2000/svg" xmlns:xlink="http://www.w3.org/1999/xlink" x="0px" y="0px"
	 width="539.973px" height="600px" viewBox="0 0 539.973 600" enable-background="new 0 0 539.973 600" xml:space="preserve">
<g>
	<path fill="#676767" d="M140.16,249.682l-0.002-34.133c0.167-8.701-10.875-10.125-10.875-10.125l-56.22-18.486
		C66.537,183.757,57,183.922,57,183.922l-19.409,0.003c-12.883-0.168-12.548,7.027-12.548,7.027v35.974
		c0,4.016,7.864,7.696,7.864,7.696l41.755,21.25c4.443,3.18,12.456,3.616,12.456,3.616l45.177-0.269
		C141.496,261.394,140.16,249.682,140.16,249.682z M137.815,248.678c0,0-0.502,6.358-6.358,6.19l-40.994,0.004
		c0,0-5.856-0.004-6.023-5.859v-31.122c0,0,0.836-5.354,7.362-5.187l38.818-0.004c0,0,6.693-0.331,7.195,6.362V248.678z"/>
	<path fill="#676767" d="M124.262,223.915l-9.872-3.347h-5.02c-11.712,0.167-11.713,13.217-11.713,13.217
		c-1.171,8.866,8.366,12.718,8.366,12.718l13.72,3.681c14.725-2.176,13.386-13.05,13.386-13.05
		C134.469,227.428,124.262,223.915,124.262,223.915z M119.745,246.336c-5.313,0-9.621-4.308-9.621-9.622
		c0-5.313,4.308-9.621,9.621-9.621c5.313,0,9.621,4.308,9.621,9.621C129.365,242.028,125.058,246.336,119.745,246.336z"/>
	<path fill="#676767" d="M25.711,295.024v16.564l44.172-28.779c0,0,4.184-2.511,3.849-7.696l0.019-13.722l-13.907-6.692
		l-0.167,17.569L25.711,295.024z"/>
</g>
</svg>
