<?xml version="1.0" encoding="utf-8"?>
<!-- Generator: Adobe Illustrator 16.0.0, SVG Export Plug-In . SVG Version: 6.00 Build 0)  -->
<!DOCTYPE svg PUBLIC "-//W3C//DTD SVG 1.1//EN" "http://www.w3.org/Graphics/SVG/1.1/DTD/svg11.dtd">
<svg version="1.1" id="Layer_1" xmlns="http://www.w3.org/2000/svg" xmlns:xlink="http://www.w3.org/1999/xlink" x="0px" y="0px"
	 width="194px" height="128px" viewBox="0 0 194 128" enable-background="new 0 0 194 128" xml:space="preserve">
<g>
	<path fill="#FFFFFF" d="M9,64c14,2,42-1,44,13c3,21-28,18-35,32c18,13,50,12,69,3c17-7,36-32,6-38c-22-4-29,22-5,25
		c22,3,23-24,3-26c3,11,51,22,56,5c4-12-16-14-23-7c-9,10,2,28,14,32c28,10,55-41,45-64c-5-12-16-22-28-25s-31,8-13,12
		c9-14-9-18-19-18c-17,0-29,19-10,17c4-7,1-12-6-15"/>
	<g>
		<path d="M9,66.5c10.771,1.43,47.371-2.463,41.003,17.373c-2.214,6.898-12.177,9.668-18.059,12.115
			c-6.196,2.577-12.765,5.58-16.104,11.75c-0.688,1.272-0.249,2.622,0.897,3.42c18.271,12.735,44.689,12.514,65.109,5.621
			c12.882-4.349,31.45-16.267,29.167-32.234c-1.201-8.393-11.45-12.02-18.556-13.148c-7.432-1.181-14.961,1.032-19.537,7.168
			c-3.859,5.176-2.837,12.089,1.144,16.776c5.177,6.095,15.823,7.562,23.126,5.566c7.094-1.938,11.565-9.148,10.393-16.339
			C106.209,76.131,98.998,71.506,91,70.5c-1.596-0.201-2.871,1.75-2.411,3.165c1.723,5.295,7.689,8.202,12.457,10.178
			c7.539,3.125,15.624,4.831,23.757,5.354c6.664,0.429,14.518-0.077,20.084-4.18c4.714-3.475,7.321-11.343,2.835-16.075
			c-5.112-5.392-14.225-5.438-20.698-2.799c-8.507,3.469-10.137,12.904-7.541,20.889c2.918,8.973,10.75,16.406,19.76,18.967
			c7.608,2.163,15.556-0.28,21.975-4.465c10.845-7.07,18.106-19.161,22.561-31.029c4.333-11.544,5.586-24.185,0.123-35.498
			c-6.352-13.155-22.276-26.364-37.726-23.637c-4.678,0.826-11.732,2.84-13.659,7.835c-2.171,5.627,4.656,8.169,8.82,9.206
			c1.102,0.274,2.235-0.169,2.823-1.149c5.686-9.466,0.995-16.866-8.798-20.02c-9.448-3.043-20.881-2.463-28.759,4.044
			c-5.399,4.46-9.146,13.573,0.119,15.992c2.045,0.534,4.914,0.691,6.944,0.133c2.394-0.658,3.21-4.893,3.51-6.919
			c0.904-6.111-3.888-10.31-8.913-12.65c-2.903-1.352-5.444,2.957-2.523,4.317c5.279,2.458,8.033,5.892,5.103,11.58
			c0.72-0.413,1.439-0.826,2.159-1.238c-4.304,0.353-9.519-0.141-5.531-5.131c3.377-4.225,9.053-6.414,14.297-6.836
			c4.725-0.38,9.747,0.576,14.17,2.182c6.08,2.207,7.125,6.664,3.906,12.023c0.941-0.383,1.882-0.766,2.823-1.149
			c-1.041-0.259-6.594-1.308-5.188-3.089c1.286-1.628,3.613-2.519,5.484-3.201c6.022-2.196,11.854-1.282,17.554,1.331
			c10.514,4.819,19.732,15.493,21.777,27.01c3.151,17.75-8.198,39.217-21.609,50.14c-7.063,5.752-16.323,7.894-24.654,3.64
			c-8.015-4.092-19.527-20.731-8.703-27.862c5.415-3.568,21.755-2.866,16.741,7.042c-3.119,6.163-13.561,5.871-19.264,5.597
			c-6.769-0.325-13.519-1.883-19.882-4.169c-3.53-1.269-10.194-3.648-11.51-7.692C92.607,73.39,91.804,74.445,91,75.5
			c6.847,0.861,13.035,6.143,11.558,13.563c-1.79,8.988-13.167,8.398-19.775,6.144c-6.5-2.218-9.649-9.285-4.969-14.828
			c5.879-6.963,17.747-4.493,24.414-0.279c6.769,4.277,3.525,12.1-0.179,17.218c-4.959,6.852-12.573,11.24-20.316,14.204
			c-19.197,7.348-45.162,7.384-62.471-4.68c0.299,1.14,0.598,2.28,0.897,3.42c4.073-7.529,14.403-9.778,21.645-13.059
			c7.414-3.358,13.445-8.481,13.896-17.081C56.816,58.834,22.031,63.229,9,61.5C5.811,61.077,5.852,66.082,9,66.5L9,66.5z"/>
	</g>
</g>
</svg>
