<?xml version="1.0" encoding="utf-8"?>
<!-- Generator: Adobe Illustrator 16.0.0, SVG Export Plug-In . SVG Version: 6.00 Build 0)  -->
<!DOCTYPE svg PUBLIC "-//W3C//DTD SVG 1.1//EN" "http://www.w3.org/Graphics/SVG/1.1/DTD/svg11.dtd">
<svg version="1.1" id="Layer_1" xmlns="http://www.w3.org/2000/svg" xmlns:xlink="http://www.w3.org/1999/xlink" x="0px" y="0px"
	 width="245.64px" height="577px" viewBox="0 0 245.64 577" enable-background="new 0 0 245.64 577" xml:space="preserve">
<path fill="none" stroke="#000000" stroke-miterlimit="10" d="M89,15c0.008,2.775-0.208,2.404-2.278,3.726
	c-1.743,1.113-3.094,3.053-4.722,4.326c-2.046,1.598-3.341,1.726-4.726,3.957c-1.802,2.903-5.515,5.768-6.368,9.011
	c-0.931,3.536,0.033,7.54,3.272,9.251c2.636,1.393,6.257,0.728,9.104,0.729c5.236,0.002,10.473,0,15.71,0
	c3.935,0,7.871-0.003,11.806,0c2.065,0.002,4.413-0.44,6.254,0.703c1.463,0.909,2.359,2.604,3.916,3.548
	c1.132,0.687,1.567,0.464,2.104,1.649c0.477,1.053-0.004,3.86-0.052,5.1c-0.106,2.793-1.914,6.463-3.769,8.603
	c-1.333,1.539-3.497,4.235-5.258,5.223c-1.841,1.033-4.609,1.407-6.628,2.276c-4.471,1.925-9.049,3.818-13.601,5.532
	c-3.278,1.234-6.888,1.757-10.1,3.116c-1.686,0.713-4.197,1.599-5.668,2.553c-1.467,0.952-2.544,5-3.271,6.454
	c-1.06,2.118-1.557,4.546-2.698,6.589c-1.289,2.308-4.296,4.197-5.077,6.626c-0.26,0.81-0.475,2.148-0.722,3.028
	c-0.613,2.186-0.032,2.309,1.258,4c2.138,2.804,4.574,4.087,7.54,5.945c3.01,1.886,4.13,4.439,7.936,5.1
	c1.687,0.293,3.89-0.103,5.511-0.274c4.063-0.428,8.681-0.093,12.628-1.19c3.456-0.961,6.276-2.365,9.909-2.877
	c5.547-0.782,10.876-1.632,16.505-1.751c9.094-0.191,18.264,0.496,27.353,0.071c3.117-0.146,6.005-1.107,9.151-1.016
	c2.976,0.087,4.831,0.994,7.254,2.949c3.927,3.166,4.951,6.654,5.968,11.342c0.71,3.275,0.748,6.137,0.781,9.557
	c0.032,3.308-0.144,6.587-0.709,9.856c-0.483,2.789-1.262,3.347-3.267,5.299c-1.548,1.507-2.741,2.986-4.769,3.813
	c-1.585,0.646-3.399,1.037-5.043,1.733c-1.857,0.786-3.663,0.377-5.681,0.608c-5.762,0.661-11.057,1.681-16.881,1.808
	c-3.499,0.076-6.871,0.888-10.341,1.26c-6.399,0.686-12.497,1.15-18.804,2.55c-4.817,1.068-9.585,1.653-14.489,2.242
	c-7.002,0.841-14.188,0.305-21.132,1.418c-11.893,1.907-23.883,4.599-35.898,5.532c-2.902,0.226-3.435,1.378-5.455,3.055
	c-2.007,1.666-5.25,3.013-7.591,4.246c-4.424,2.33,1.279,3.192,3.852,4.338c4.677,2.084,8.833,4.773,13.103,7.156
	c2.088,1.165,4.195,1.35,6.379,2.694c4.237,2.608,7.209,6.85,11.504,9.337c3.104,1.797,4.885,0.812,8.124-0.073
	c3.865-1.056,8.012-0.839,11.936-1.503c3.603-0.61,7.466-0.225,11.137-0.223c3.68,0.002,7.229-0.271,10.801,0.729
	c2.56,0.717,4.737,1.946,7.128,3.02c1.555,0.698,3.185,1.211,4.9,1.303c0.928,0.049,2.11-0.392,2.968,0.151
	c1.466,0.928,1.959,4.399,2.258,6c0.826,4.428,0.57,11.862-1.881,15.504c-1.566,2.327-4.444,4.252-6.516,6.135
	c-1.001,0.91-2.455,2.484-3.583,3.207c-1.813,1.16-3.818,1.166-5.833,1.923c-2.195,0.825-3.936,1.853-6.264,2.322
	c-4.038,0.813-8.127,0.776-12.225,0.733c-2.854-0.031-4.438-0.514-6.668,0.902c-2.95,1.873-6.5,4.841-10.15,5.146
	c-1.986,0.166-4.187-0.108-2.797,2.952c1.634,3.599,9.699,3.023,12.742,4.219c7.528,2.957,16.301,2.67,24.455,2.829
	c12.204,0.239,25.229,0.426,37.342-1.293c5.706-0.811,11.043-0.82,16.859-0.781c8.585,0.057,17.016-0.36,25.585-0.777
	c6.759-0.329,13.504-0.223,20.266-0.223c1.7,0,7.485-1.238,6.758,2.007c-0.388,1.733-2.089,1.369-3.175,2.344
	c-1.628,1.461-2.178,4.526-2.991,6.434c-1.663,3.903-3.019,7.917-4.004,12.013c-0.832,3.46-1.982,5.337-4.18,8.183
	c-5.84,7.566-13.097,10.531-21.927,13.797c-3.131,0.958-6.143,2.196-9.036,3.717c-3.48,2.098-6.212,4.39-10.098,5.851
	c-3.022,1.136-6.29,2.338-9.379,3.252c-1.903,0.563-3.229,0.295-5.173,0.375c-2.257,0.094-3,1.115-4.859,2.253
	c-1.507,0.922-3.024,1.867-4.538,2.801c-1.313,0.809-3.545,1.225-4.653,2.258c-2.845,2.653,0.757,6.585,2.853,8.874
	c1.361,1.487,3.393,3.636,5.075,4.932c0.92,0.709,1.654,0.75,2.012,1.857c0.492,1.522-0.071,4.908-0.071,6.425
	c0,4.64,0,9.28,0,13.92c0,2.173-0.182,4.438-0.046,6.604c0.235,3.761,2.27,7.09,2.817,10.872c0.373,2.578,0.731,4.375-0.925,6.448
	c-2.505,3.136-5.622,4.816-9.288,6.223c-7.253,2.782-15.083,2.655-22.002,5.261c-2.465,0.929-4.226,3.138-6.552,4.104
	c-1.067,0.443-2.112-0.049-2.966,0.95c-1.497,1.75,3.064,7.014,3.701,7.851c1.138,1.467,2.325,2.895,3.559,4.281
	c1.224,1.189,3.537,1.761,4.571,2.887c1.135,1.235,1.474,0.192,0.973,2.202c-0.174,0.697-1.609,2.287-2.048,2.959
	c-3.022,4.63-5.551,8.815-7.765,13.97c-3.23,7.522-7.172,13.823-7.048,22.189c0.108,7.324-0.07,14.652,0.02,21.977
	c0.023,1.869,0.391,3.484-0.952,4.977c-1.743,1.938-4.168,2.072-6.349,3.148c-2.934,1.447-5.271,4.691-5.719,7.777
	c-0.31,2.137,0.455,2.255,1.293,3.752c1.186,2.117,0.84,4.998,0.778,7.534c-0.144,2.648-0.422,5.283-0.833,7.904
	c-0.425,4.622-0.055,9.229-0.415,13.855c-0.515,6.629-1.67,13.264-2.578,19.794C77.268,553.704,78,561.025,78,568"/>
</svg>
