<?xml version="1.0" encoding="utf-8"?>
<!-- Generator: Adobe Illustrator 16.0.0, SVG Export Plug-In . SVG Version: 6.00 Build 0)  -->
<!DOCTYPE svg PUBLIC "-//W3C//DTD SVG 1.1//EN" "http://www.w3.org/Graphics/SVG/1.1/DTD/svg11.dtd">
<svg version="1.1" id="Layer_1" xmlns="http://www.w3.org/2000/svg" xmlns:xlink="http://www.w3.org/1999/xlink" x="0px" y="0px"
	 width="539.973px" height="514.58px" viewBox="0 0 539.973 514.58" enable-background="new 0 0 539.973 514.58"
	 xml:space="preserve">
<g>
	<path fill="#72CBF2" d="M282.721,370.563l-12.28-12.982c0,0,57.895-56.14,68.069-55.788
		C338.51,301.793,338.51,311.968,282.721,370.563z"/>
	<path fill="#72CBF2" d="M279.914,373.02l-12.982-12.631c0,0-45.613,40.35-60.701,60.7l12.982,12.981
		C219.213,434.07,253.949,409.159,279.914,373.02z"/>
	<path fill="#72CBF2" d="M215.002,436.526L203.424,425.3c0,0-16.842,16.49-24.912,31.578c0,0,6.316,1.754,4.562,4.912
		C183.073,461.79,213.424,441.614,215.002,436.526z"/>
	<path fill="#72CBF2" d="M137.811,501.438c0,0,54.385-14.035,42.807-40.351c0,0-17.193-16.842-31.228,20.175
		C149.39,481.263,143.775,498.982,137.811,501.438z"/>
</g>
</svg>
