<?xml version="1.0" encoding="utf-8"?>
<!-- Generator: Adobe Illustrator 16.0.0, SVG Export Plug-In . SVG Version: 6.00 Build 0)  -->
<!DOCTYPE svg PUBLIC "-//W3C//DTD SVG 1.1//EN" "http://www.w3.org/Graphics/SVG/1.1/DTD/svg11.dtd">
<svg version="1.1" id="Layer_1" xmlns="http://www.w3.org/2000/svg" xmlns:xlink="http://www.w3.org/1999/xlink" x="0px" y="0px"
	 width="539.973px" height="514.58px" viewBox="0 0 539.973 514.58" enable-background="new 0 0 539.973 514.58"
	 xml:space="preserve">
<g>
	<path fill="#676767" d="M256.429,46.786c0,0-21.243,56.92-42.325,74.434c0,0,0.162,4.541-0.973,5.838l4.054,23.838
		c0,0,0.324,3.729-4.054,3.081c0,0,0.648,8.108-4.054,5.351c0,0,2.108,6.163-4.216,4.216c0,0,0.162,5.352-3.892,2.757
		c0,0-4.703,1.297-4.216-4.703l4.216-45.893V28.786c0,0,1.622-5.027,6.974-5.027H338.81c0,0,8.108-0.973,8.108,6.163v85.786
		c0,0,4.055,42.163,4.378,42.812c0,0,0,2.432-2.595,2.919l-0.162,3.892c0,0-4.703,2.918-5.837-0.973c0,0-5.677-1.297-4.703-4.703
		c0,0-5.189-1.135-3.893-5.027c0,0-4.242-0.943-3.603-8.706c0.011-0.123,0.022-0.249,0.035-0.375
		c0.812-8.108,3.406-21.082,3.406-21.082s-20.271-13.784-42.975-76.705l-0.649-2.189c0,0-1.702,2.271-4.134,0.892
		c0,0-3.893,4.459-7.703,1.865c0,0-3.812,5.108-9.082-0.162c0,0-5.918,1.784-7.216-1.459
		C262.186,46.705,257.97,49.381,256.429,46.786z"/>
	<path fill="#676767" d="M231.78,102.409h79.948c0,0,13.783,20.757,18.973,22.865l-2.919,16.541H219.456l-3.568-14.271
		c0,0,2.069-1.507,1.784-5.433C217.672,122.112,231.416,106.729,231.78,102.409z"/>
</g>
</svg>
