<?xml version="1.0" encoding="utf-8"?>
<!-- Generator: Adobe Illustrator 15.1.0, SVG Export Plug-In . SVG Version: 6.00 Build 0)  -->
<!DOCTYPE svg PUBLIC "-//W3C//DTD SVG 1.1//EN" "http://www.w3.org/Graphics/SVG/1.1/DTD/svg11.dtd">
<svg version="1.1" id="Layer_1" xmlns="http://www.w3.org/2000/svg" xmlns:xlink="http://www.w3.org/1999/xlink" x="0px" y="0px"
	 width="539.973px" height="514.58px" viewBox="0 0 539.973 514.58" enable-background="new 0 0 539.973 514.58"
	 xml:space="preserve">
<g>
	<g>
		<path fill="#666666" d="M268.062,116.402c-2.477,2.892-5.157,5.042-7.417,4.245c-2.941-1.177-7.646-14.411-6.764-17.352
			c1.764-6.765,14.117-5,15.293-10.882c2.059-11.765-15-5-18.529-6.47c-2.941-1.47-1.177-5.589-4.412-7.647
			c-3.235-1.765-5.588,0.294-7.941-3.529c-3.235-5.589-0.294-14.117,0.294-19.706c0.882-7.058-0.294-12.94-5-18.234
			c-3.824-4.412-8.823-10.294-9.706-16.765l0.266,1.062c0.039-0.795,0.658-1.682,1.704-2.625
			c-25.192,8.988-46.967,12.152-46.967,12.152c26.764,89.997,66.173,91.467,66.173,91.467c11.419,4.153,19.444-0.382,24.983-7.427
			C269.433,115.276,268.774,115.845,268.062,116.402z M197.762,54.951c1.271-0.846,2.928-1.68,4.774-2.543
			c3.904-3.308,7.214-8.106,9.931-11.867c0.882-1.471,3.235-6.765,5.294-7.354c2.941-0.294,4.118,3.235,3.529,5.588
			c-1.635,6.542-11.619,10.299-18.753,13.632c-1.591,1.348-3.28,2.451-5.069,3.132L197.762,54.951z M223.936,62.01
			c-3.234,2.646-8.234,3.235-12.057,1.177h-1.178c5.588-2.353,10.294-8.235,14.706-12.352
			C226.877,54.951,228.054,58.775,223.936,62.01z"/>
		<g>
			<path fill="#666666" d="M240.48,26.061c-2.94,7.647,20.588,1.47,23.822-0.588c-4.705-1.176-22.645-4.411-24.41,2.059"/>
		</g>
		<g>
			<path fill="#666666" d="M246.656,40.472c6.176,6.471,14.412,2.06,19.41-3.234c-4.116,0-8.528,0-12.939,0
				c-1.471,0-5-0.588-6.471,0.293c-2.353,1.471-1.765,3.529,0.882,3.236"/>
		</g>
	</g>
	<g>
		<g>
			<g>
				<path fill="#666666" d="M283.52,10.036c-0.802-0.21-1.227-0.324-1.227-0.324c-0.253,1.003-0.495,1.995-0.733,2.981
					C282.255,11.573,282.864,10.698,283.52,10.036z"/>
			</g>
			<g>
				<path fill="#666666" d="M276.455,92.326c0.933,4.182,2.089,7.886,3.396,11.165C278.601,99.872,277.456,96.131,276.455,92.326z"
					/>
			</g>
			<g>
				<path fill="#666666" d="M322.688,19.65c0.697,0.77,0.994,1.543,0.699,2.292c0.195,6.025-0.192,11.83-2.121,17.891
					c-2.366,6.209-4.73,13.009-2.366,19.81c1.48,3.548,4.732,6.209,5.916,9.757c1.183,4.73-0.298,4.435-3.844,6.504
					c-3.254,2.07-3.845,2.365-5.027,6.505c-1.183,3.843-0.591,5.617-5.027,5.617c-4.73,0-10.052-3.843-10.349-8.87
					c-6.209,4.14-1.182,16.558,3.254,20.401c3.252,2.957,5.027,2.661,6.208,7.097c0.887,2.661,1.773,6.505,1.773,9.461
					c0.296,10.94-8.574,12.714-15.965,7.688c-3.771-2.64-7.902-6.483-11.014-10.608c8.442,12.943,18.752,15.08,18.752,15.08
					c54.997,2.662,73.329-99.345,73.329-99.345C364.969,28.646,342.652,24.195,322.688,19.65z"/>
			</g>
		</g>
		<g>
			<path fill="#666666" d="M312.691,39.833c-5.912,1.478-7.096-2.957-11.234-6.208c-4.73-4.141-10.645-3.548-15.968-6.21
				c4.732-2.957,14.785-3.547,19.518-0.591c2.66,1.477,10.348,12.122,6.207,13.009"/>
		</g>
		<g>
			<path fill="#666666" d="M288.152,45.452c5.618-4.14,20.105-5.027,18.332,5.025c-5.915,1.479-7.097,0.888-11.532-2.364
				c-2.07-1.479-6.209-2.069-6.504-3.548"/>
		</g>
		<g>
			<path fill="#666666" d="M333.389,40.424c-1.182,0.296-3.546,2.365-2.659,3.844c1.183,2.365,7.095,0.295,8.87,0.295
				c6.8-0.591,12.418,0.296,16.853,5.913c2.957-5.616-7.096-9.165-11.235-10.643c-5.324-2.07-8.87-0.888-13.897,1.183"/>
		</g>
		<g>
			<path fill="#666666" d="M330.729,51.364c-4.73,0.592-1.184,4.731,2.365,5.027c5.617,0.295,9.461-2.07,13.6,3.548
				c3.548-9.167-12.713-15.079-18.034-7.983"/>
		</g>
	</g>
</g>
</svg>
